<mxfile host="Electron" modified="2023-08-15T21:22:47.886Z" agent="Mozilla/5.0 (Macintosh; Intel Mac OS X 10_15_7) AppleWebKit/537.36 (KHTML, like Gecko) draw.io/21.6.8 Chrome/114.0.5735.289 Electron/25.5.0 Safari/537.36" etag="0iZ-FrVd-YxE_rnJTz4x" version="21.6.8" type="device" pages="7">
  <diagram id="JKiRzwpIw3zraFINHBog" name="main">
    <mxGraphModel dx="998" dy="619" grid="1" gridSize="10" guides="1" tooltips="1" connect="1" arrows="1" fold="1" page="1" pageScale="1" pageWidth="1100" pageHeight="850" math="0" shadow="0">
      <root>
        <mxCell id="0" />
        <mxCell id="1" parent="0" />
        <mxCell id="ABaYTsJAZbEAvV7Ggp3z-5" style="edgeStyle=orthogonalEdgeStyle;shape=connector;rounded=1;orthogonalLoop=1;jettySize=auto;html=1;entryX=0;entryY=0.5;entryDx=0;entryDy=0;entryPerimeter=0;labelBackgroundColor=default;strokeColor=default;fontFamily=Helvetica;fontSize=11;fontColor=default;endArrow=classic;" parent="1" source="hQF7NtFrzelggQrZhbvW-3" target="Gul_pPn51YBXzF6UtTv0-2" edge="1">
          <mxGeometry relative="1" as="geometry" />
        </mxCell>
        <mxCell id="hQF7NtFrzelggQrZhbvW-3" value="filename" style="rhombus;whiteSpace=wrap;html=1;rounded=1;fontStyle=1;glass=0;sketch=0;fontSize=12;points=[[0,0.5,0,0,0],[0.5,0,0,0,0],[0.5,1,0,0,0],[1,0.5,0,0,0]];shadow=1;" parent="1" vertex="1">
          <mxGeometry x="40" y="183.5" width="80" height="80" as="geometry" />
        </mxCell>
        <mxCell id="hQF7NtFrzelggQrZhbvW-4" value="output" style="rhombus;whiteSpace=wrap;html=1;rounded=1;fillColor=#0050ef;fontColor=#ffffff;strokeColor=#001DBC;fontStyle=1;glass=0;sketch=0;fontSize=12;points=[[0,0.5,0,0,0],[0.5,0,0,0,0],[0.5,1,0,0,0],[1,0.5,0,0,0]];shadow=1;" parent="1" vertex="1">
          <mxGeometry x="1226.75" y="83.5" width="80" height="80" as="geometry" />
        </mxCell>
        <mxCell id="Gul_pPn51YBXzF6UtTv0-1" value="textfilereader" style="rounded=1;whiteSpace=wrap;html=1;sketch=0;container=1;recursiveResize=0;verticalAlign=top;arcSize=6;fontStyle=1;autosize=0;points=[];absoluteArcSize=1;shadow=1;strokeColor=#001DBC;fillColor=#0050ef;fontColor=#ffffff;fontFamily=Helvetica;fontSize=11;" parent="1" vertex="1">
          <mxGeometry x="190" y="175" width="130" height="120" as="geometry">
            <mxRectangle x="-98" y="-1230" width="99" height="26" as="alternateBounds" />
          </mxGeometry>
        </mxCell>
        <mxCell id="Gul_pPn51YBXzF6UtTv0-2" value="filename" style="rounded=1;whiteSpace=wrap;html=1;sketch=0;points=[[0,0.5,0,0,0],[1,0.5,0,0,0]];arcSize=50;fontFamily=Helvetica;fontSize=11;fontColor=default;" parent="Gul_pPn51YBXzF6UtTv0-1" vertex="1">
          <mxGeometry x="-16.75" y="36" width="66" height="25" as="geometry" />
        </mxCell>
        <mxCell id="Gul_pPn51YBXzF6UtTv0-3" value="str" style="rounded=1;whiteSpace=wrap;html=1;sketch=0;points=[[0,0.5,0,0,0],[1,0.5,0,0,0]];fillColor=#1ba1e2;fontColor=#ffffff;strokeColor=#006EAF;arcSize=50;fontFamily=Helvetica;fontSize=11;" parent="Gul_pPn51YBXzF6UtTv0-1" vertex="1">
          <mxGeometry x="84.75" y="36" width="66" height="25" as="geometry" />
        </mxCell>
        <mxCell id="Gul_pPn51YBXzF6UtTv0-4" value="error" style="rounded=1;whiteSpace=wrap;html=1;sketch=0;points=[[0,0.5,0,0,0],[1,0.5,0,0,0]];fillColor=#1ba1e2;fontColor=#ffffff;strokeColor=#006EAF;arcSize=50;fontFamily=Helvetica;fontSize=11;" parent="Gul_pPn51YBXzF6UtTv0-1" vertex="1">
          <mxGeometry x="84.75" y="80" width="66" height="25" as="geometry" />
        </mxCell>
        <mxCell id="ABaYTsJAZbEAvV7Ggp3z-1" value="panic" style="rounded=1;whiteSpace=wrap;html=1;sketch=0;container=1;recursiveResize=0;verticalAlign=top;arcSize=6;fontStyle=1;autosize=0;points=[];absoluteArcSize=1;shadow=1;strokeColor=#666666;fillColor=#f5f5f5;fontFamily=Helvetica;fontSize=11;fontColor=#333333;" parent="1" vertex="1">
          <mxGeometry x="1226.75" y="363.5" width="90" height="90" as="geometry">
            <mxRectangle x="-98" y="-1230" width="99" height="26" as="alternateBounds" />
          </mxGeometry>
        </mxCell>
        <mxCell id="ABaYTsJAZbEAvV7Ggp3z-2" value="str" style="rounded=1;whiteSpace=wrap;html=1;sketch=0;points=[[0,0.5,0,0,0],[1,0.5,0,0,0]];arcSize=50;fontFamily=Helvetica;fontSize=11;fontColor=default;" parent="ABaYTsJAZbEAvV7Ggp3z-1" vertex="1">
          <mxGeometry x="-16.75" y="36" width="66" height="25" as="geometry" />
        </mxCell>
        <mxCell id="ABaYTsJAZbEAvV7Ggp3z-9" style="edgeStyle=orthogonalEdgeStyle;shape=connector;rounded=1;orthogonalLoop=1;jettySize=auto;html=1;exitX=1;exitY=0.5;exitDx=0;exitDy=0;exitPerimeter=0;entryX=0;entryY=0.5;entryDx=0;entryDy=0;entryPerimeter=0;labelBackgroundColor=default;strokeColor=default;fontFamily=Helvetica;fontSize=11;fontColor=default;endArrow=classic;" parent="1" source="Gul_pPn51YBXzF6UtTv0-3" target="xLX7eQguBZ5Upq3bny0i-17" edge="1">
          <mxGeometry relative="1" as="geometry">
            <mxPoint x="420" y="128.5" as="targetPoint" />
          </mxGeometry>
        </mxCell>
        <mxCell id="xLX7eQguBZ5Upq3bny0i-16" value="&lt;div&gt;Tokenize&lt;/div&gt;" style="rounded=1;sketch=0;container=1;recursiveResize=0;verticalAlign=top;arcSize=6;fontStyle=1;autosize=0;points=[];absoluteArcSize=1;shadow=1;strokeColor=#001DBC;fillColor=#0050ef;fontColor=#ffffff;fontFamily=Helvetica;fontSize=11;html=1;whiteSpace=wrap;align=left;spacingLeft=30;" parent="1" vertex="1">
          <mxGeometry x="440" y="83.5" width="130" height="100" as="geometry">
            <mxRectangle x="-98" y="-1230" width="99" height="26" as="alternateBounds" />
          </mxGeometry>
        </mxCell>
        <mxCell id="xLX7eQguBZ5Upq3bny0i-17" value="stdin" style="rounded=1;whiteSpace=wrap;html=1;sketch=0;points=[[0,0.5,0,0,0],[1,0.5,0,0,0]];arcSize=50;" parent="xLX7eQguBZ5Upq3bny0i-16" vertex="1">
          <mxGeometry x="-20" y="31" width="66" height="25" as="geometry" />
        </mxCell>
        <mxCell id="xLX7eQguBZ5Upq3bny0i-18" value="stderr" style="rounded=1;whiteSpace=wrap;html=1;sketch=0;points=[[0,0.5,0,0,0],[1,0.5,0,0,0]];fillColor=#1ba1e2;fontColor=#ffffff;strokeColor=#006EAF;arcSize=50;fontFamily=Helvetica;fontSize=11;" parent="xLX7eQguBZ5Upq3bny0i-16" vertex="1">
          <mxGeometry x="94" y="56" width="66" height="25" as="geometry" />
        </mxCell>
        <mxCell id="xLX7eQguBZ5Upq3bny0i-19" value="stdout" style="rounded=1;whiteSpace=wrap;html=1;sketch=0;points=[[0,0.5,0,0,0],[1,0.5,0,0,0]];fillColor=#1ba1e2;fontColor=#ffffff;strokeColor=#006EAF;arcSize=50;" parent="xLX7eQguBZ5Upq3bny0i-16" vertex="1">
          <mxGeometry x="94" y="19.5" width="66" height="25" as="geometry" />
        </mxCell>
        <mxCell id="xLX7eQguBZ5Upq3bny0i-26" style="edgeStyle=orthogonalEdgeStyle;shape=connector;rounded=1;orthogonalLoop=1;jettySize=auto;html=1;exitX=1;exitY=0.5;exitDx=0;exitDy=0;exitPerimeter=0;entryX=0;entryY=0.5;entryDx=0;entryDy=0;entryPerimeter=0;labelBackgroundColor=default;strokeColor=default;fontFamily=Helvetica;fontSize=11;fontColor=default;endArrow=classic;" parent="1" source="xLX7eQguBZ5Upq3bny0i-18" target="ABaYTsJAZbEAvV7Ggp3z-2" edge="1">
          <mxGeometry relative="1" as="geometry">
            <Array as="points">
              <mxPoint x="630" y="152" />
              <mxPoint x="630" y="412" />
            </Array>
          </mxGeometry>
        </mxCell>
        <mxCell id="WWSgFqgPtFgQqXYoqULp-1" value="&lt;div&gt;Delete Comments&lt;/div&gt;" style="rounded=1;sketch=0;container=1;recursiveResize=0;verticalAlign=top;arcSize=6;fontStyle=1;autosize=0;points=[];absoluteArcSize=1;shadow=1;strokeColor=#001DBC;fillColor=#0050ef;fontColor=#ffffff;fontFamily=Helvetica;fontSize=11;html=1;whiteSpace=wrap;align=left;spacingLeft=30;" vertex="1" parent="1">
          <mxGeometry x="680" y="75" width="130" height="100" as="geometry">
            <mxRectangle x="-98" y="-1230" width="99" height="26" as="alternateBounds" />
          </mxGeometry>
        </mxCell>
        <mxCell id="WWSgFqgPtFgQqXYoqULp-2" value="stdin" style="rounded=1;whiteSpace=wrap;html=1;sketch=0;points=[[0,0.5,0,0,0],[1,0.5,0,0,0]];arcSize=50;" vertex="1" parent="WWSgFqgPtFgQqXYoqULp-1">
          <mxGeometry x="-20" y="31" width="66" height="25" as="geometry" />
        </mxCell>
        <mxCell id="WWSgFqgPtFgQqXYoqULp-3" value="stderr" style="rounded=1;whiteSpace=wrap;html=1;sketch=0;points=[[0,0.5,0,0,0],[1,0.5,0,0,0]];fillColor=#1ba1e2;fontColor=#ffffff;strokeColor=#006EAF;arcSize=50;fontFamily=Helvetica;fontSize=11;" vertex="1" parent="WWSgFqgPtFgQqXYoqULp-1">
          <mxGeometry x="94" y="56" width="66" height="25" as="geometry" />
        </mxCell>
        <mxCell id="WWSgFqgPtFgQqXYoqULp-4" value="stdout" style="rounded=1;whiteSpace=wrap;html=1;sketch=0;points=[[0,0.5,0,0,0],[1,0.5,0,0,0]];fillColor=#1ba1e2;fontColor=#ffffff;strokeColor=#006EAF;arcSize=50;" vertex="1" parent="WWSgFqgPtFgQqXYoqULp-1">
          <mxGeometry x="94" y="19.5" width="66" height="25" as="geometry" />
        </mxCell>
        <mxCell id="WWSgFqgPtFgQqXYoqULp-5" style="edgeStyle=orthogonalEdgeStyle;shape=connector;rounded=1;orthogonalLoop=1;jettySize=auto;html=1;exitX=1;exitY=0.5;exitDx=0;exitDy=0;exitPerimeter=0;entryX=0;entryY=0.5;entryDx=0;entryDy=0;entryPerimeter=0;labelBackgroundColor=default;strokeColor=default;fontFamily=Helvetica;fontSize=11;fontColor=default;endArrow=classic;" edge="1" parent="1" source="xLX7eQguBZ5Upq3bny0i-19" target="WWSgFqgPtFgQqXYoqULp-2">
          <mxGeometry relative="1" as="geometry" />
        </mxCell>
        <mxCell id="WWSgFqgPtFgQqXYoqULp-7" style="edgeStyle=orthogonalEdgeStyle;shape=connector;rounded=1;orthogonalLoop=1;jettySize=auto;html=1;exitX=1;exitY=0.5;exitDx=0;exitDy=0;exitPerimeter=0;entryX=0;entryY=0.5;entryDx=0;entryDy=0;entryPerimeter=0;labelBackgroundColor=default;strokeColor=default;fontFamily=Helvetica;fontSize=11;fontColor=default;endArrow=classic;" edge="1" parent="1" source="WWSgFqgPtFgQqXYoqULp-3" target="ABaYTsJAZbEAvV7Ggp3z-2">
          <mxGeometry relative="1" as="geometry">
            <Array as="points">
              <mxPoint x="880" y="144" />
              <mxPoint x="880" y="412" />
            </Array>
          </mxGeometry>
        </mxCell>
        <mxCell id="yYvW2jDAUfvJPspzs2Eu-1" style="edgeStyle=orthogonalEdgeStyle;shape=connector;rounded=1;orthogonalLoop=1;jettySize=auto;html=1;exitX=1;exitY=0.5;exitDx=0;exitDy=0;exitPerimeter=0;entryX=0;entryY=0.5;entryDx=0;entryDy=0;entryPerimeter=0;labelBackgroundColor=default;strokeColor=default;fontFamily=Helvetica;fontSize=11;fontColor=default;endArrow=classic;" edge="1" parent="1" source="Gul_pPn51YBXzF6UtTv0-4" target="ABaYTsJAZbEAvV7Ggp3z-2">
          <mxGeometry relative="1" as="geometry">
            <Array as="points">
              <mxPoint x="380" y="268" />
              <mxPoint x="380" y="412" />
            </Array>
          </mxGeometry>
        </mxCell>
        <mxCell id="IsI3FkqyFb9E6frD3zN7-1" value="&lt;div&gt;Pseudo&lt;/div&gt;" style="rounded=1;sketch=0;container=1;recursiveResize=0;verticalAlign=top;arcSize=6;fontStyle=1;autosize=0;points=[];absoluteArcSize=1;shadow=1;strokeColor=#001DBC;fillColor=#0050ef;fontColor=#ffffff;fontFamily=Helvetica;fontSize=11;html=1;whiteSpace=wrap;align=left;spacingLeft=30;" vertex="1" parent="1">
          <mxGeometry x="950" y="63.5" width="130" height="100" as="geometry">
            <mxRectangle x="-98" y="-1230" width="99" height="26" as="alternateBounds" />
          </mxGeometry>
        </mxCell>
        <mxCell id="IsI3FkqyFb9E6frD3zN7-2" value="stdin" style="rounded=1;whiteSpace=wrap;html=1;sketch=0;points=[[0,0.5,0,0,0],[1,0.5,0,0,0]];arcSize=50;" vertex="1" parent="IsI3FkqyFb9E6frD3zN7-1">
          <mxGeometry x="-20" y="31" width="66" height="25" as="geometry" />
        </mxCell>
        <mxCell id="IsI3FkqyFb9E6frD3zN7-3" value="stderr" style="rounded=1;whiteSpace=wrap;html=1;sketch=0;points=[[0,0.5,0,0,0],[1,0.5,0,0,0]];fillColor=#1ba1e2;fontColor=#ffffff;strokeColor=#006EAF;arcSize=50;fontFamily=Helvetica;fontSize=11;" vertex="1" parent="IsI3FkqyFb9E6frD3zN7-1">
          <mxGeometry x="94" y="56" width="66" height="25" as="geometry" />
        </mxCell>
        <mxCell id="IsI3FkqyFb9E6frD3zN7-4" value="stdout" style="rounded=1;whiteSpace=wrap;html=1;sketch=0;points=[[0,0.5,0,0,0],[1,0.5,0,0,0]];fillColor=#1ba1e2;fontColor=#ffffff;strokeColor=#006EAF;arcSize=50;" vertex="1" parent="IsI3FkqyFb9E6frD3zN7-1">
          <mxGeometry x="94" y="19.5" width="66" height="25" as="geometry" />
        </mxCell>
        <mxCell id="IsI3FkqyFb9E6frD3zN7-5" style="edgeStyle=orthogonalEdgeStyle;shape=connector;rounded=1;orthogonalLoop=1;jettySize=auto;html=1;exitX=1;exitY=0.5;exitDx=0;exitDy=0;exitPerimeter=0;entryX=0;entryY=0.5;entryDx=0;entryDy=0;entryPerimeter=0;labelBackgroundColor=default;strokeColor=default;fontFamily=Helvetica;fontSize=11;fontColor=default;endArrow=classic;" edge="1" parent="1" source="WWSgFqgPtFgQqXYoqULp-4" target="IsI3FkqyFb9E6frD3zN7-2">
          <mxGeometry relative="1" as="geometry" />
        </mxCell>
        <mxCell id="IsI3FkqyFb9E6frD3zN7-6" style="edgeStyle=orthogonalEdgeStyle;shape=connector;rounded=1;orthogonalLoop=1;jettySize=auto;html=1;exitX=1;exitY=0.5;exitDx=0;exitDy=0;exitPerimeter=0;entryX=0;entryY=0.5;entryDx=0;entryDy=0;entryPerimeter=0;labelBackgroundColor=default;strokeColor=default;fontFamily=Helvetica;fontSize=11;fontColor=default;endArrow=classic;" edge="1" parent="1" source="IsI3FkqyFb9E6frD3zN7-4" target="hQF7NtFrzelggQrZhbvW-4">
          <mxGeometry relative="1" as="geometry" />
        </mxCell>
        <mxCell id="IsI3FkqyFb9E6frD3zN7-7" style="edgeStyle=orthogonalEdgeStyle;shape=connector;rounded=1;orthogonalLoop=1;jettySize=auto;html=1;exitX=1;exitY=0.5;exitDx=0;exitDy=0;exitPerimeter=0;entryX=0;entryY=0.5;entryDx=0;entryDy=0;entryPerimeter=0;labelBackgroundColor=default;strokeColor=default;fontFamily=Helvetica;fontSize=11;fontColor=default;endArrow=classic;" edge="1" parent="1" source="IsI3FkqyFb9E6frD3zN7-3" target="ABaYTsJAZbEAvV7Ggp3z-2">
          <mxGeometry relative="1" as="geometry" />
        </mxCell>
      </root>
    </mxGraphModel>
  </diagram>
  <diagram id="cZZ443bQ9mZaEr_FJnvC" name="textfilereader">
    <mxGraphModel dx="1883" dy="561" grid="1" gridSize="10" guides="1" tooltips="1" connect="1" arrows="1" fold="1" page="1" pageScale="1" pageWidth="1100" pageHeight="850" math="0" shadow="0">
      <root>
        <mxCell id="0" />
        <mxCell id="1" parent="0" />
        <mxCell id="_DwD8Pvb7u_NGquOlMRM-1" value="Read Text From FD" style="rounded=1;whiteSpace=wrap;html=1;sketch=0;container=1;recursiveResize=0;verticalAlign=top;arcSize=6;fontStyle=1;autosize=0;points=[];absoluteArcSize=1;shadow=1;strokeColor=#001DBC;fillColor=#0050ef;fontColor=#ffffff;fontFamily=Helvetica;fontSize=11;" parent="1" vertex="1">
          <mxGeometry x="370" y="153" width="130" height="117" as="geometry">
            <mxRectangle x="-98" y="-1230" width="99" height="26" as="alternateBounds" />
          </mxGeometry>
        </mxCell>
        <mxCell id="_DwD8Pvb7u_NGquOlMRM-2" value="fd" style="rounded=1;whiteSpace=wrap;html=1;sketch=0;points=[[0,0.5,0,0,0],[1,0.5,0,0,0]];arcSize=50;fontFamily=Helvetica;fontSize=11;fontColor=default;" parent="_DwD8Pvb7u_NGquOlMRM-1" vertex="1">
          <mxGeometry x="-16.75" y="36" width="66" height="25" as="geometry" />
        </mxCell>
        <mxCell id="_DwD8Pvb7u_NGquOlMRM-3" value="str" style="rounded=1;whiteSpace=wrap;html=1;sketch=0;points=[[0,0.5,0,0,0],[1,0.5,0,0,0]];fillColor=#1ba1e2;fontColor=#ffffff;strokeColor=#006EAF;arcSize=50;fontFamily=Helvetica;fontSize=11;" parent="_DwD8Pvb7u_NGquOlMRM-1" vertex="1">
          <mxGeometry x="84.75" y="36" width="66" height="25" as="geometry" />
        </mxCell>
        <mxCell id="Uk9tNtOir4AJttoB1tT3-3" value="error" style="rounded=1;whiteSpace=wrap;html=1;sketch=0;points=[[0,0.5,0,0,0],[1,0.5,0,0,0]];fillColor=#1ba1e2;fontColor=#ffffff;strokeColor=#006EAF;arcSize=50;fontFamily=Helvetica;fontSize=11;" parent="_DwD8Pvb7u_NGquOlMRM-1" vertex="1">
          <mxGeometry x="84.75" y="77" width="66" height="25" as="geometry" />
        </mxCell>
        <mxCell id="Q7mnjypjolfxHuQ4Fn7u-5" style="edgeStyle=orthogonalEdgeStyle;shape=connector;rounded=1;orthogonalLoop=1;jettySize=auto;html=1;entryX=0;entryY=0.5;entryDx=0;entryDy=0;entryPerimeter=0;labelBackgroundColor=default;strokeColor=default;fontFamily=Helvetica;fontSize=11;fontColor=default;endArrow=classic;" parent="1" source="_DwD8Pvb7u_NGquOlMRM-4" target="Q7mnjypjolfxHuQ4Fn7u-2" edge="1">
          <mxGeometry relative="1" as="geometry" />
        </mxCell>
        <mxCell id="_DwD8Pvb7u_NGquOlMRM-4" value="filename" style="rhombus;whiteSpace=wrap;html=1;rounded=1;fontStyle=1;glass=0;sketch=0;fontSize=12;points=[[0,0.5,0,0,0],[0.5,0,0,0,0],[0.5,1,0,0,0],[1,0.5,0,0,0]];shadow=1;fontFamily=Helvetica;fontColor=default;" parent="1" vertex="1">
          <mxGeometry x="-10" y="161.5" width="80" height="80" as="geometry" />
        </mxCell>
        <mxCell id="_DwD8Pvb7u_NGquOlMRM-5" value="str" style="rhombus;whiteSpace=wrap;html=1;rounded=1;fillColor=#0050ef;fontColor=#ffffff;strokeColor=#001DBC;fontStyle=1;glass=0;sketch=0;fontSize=12;points=[[0,0.5,0,0,0],[0.5,0,0,0,0],[0.5,1,0,0,0],[1,0.5,0,0,0]];shadow=1;fontFamily=Helvetica;" parent="1" vertex="1">
          <mxGeometry x="600" y="161.5" width="80" height="80" as="geometry" />
        </mxCell>
        <mxCell id="Uk9tNtOir4AJttoB1tT3-2" style="edgeStyle=orthogonalEdgeStyle;shape=connector;rounded=1;orthogonalLoop=1;jettySize=auto;html=1;exitX=1;exitY=0.5;exitDx=0;exitDy=0;exitPerimeter=0;labelBackgroundColor=default;strokeColor=default;fontFamily=Helvetica;fontSize=11;fontColor=default;endArrow=classic;" parent="1" source="_DwD8Pvb7u_NGquOlMRM-3" target="_DwD8Pvb7u_NGquOlMRM-5" edge="1">
          <mxGeometry relative="1" as="geometry" />
        </mxCell>
        <mxCell id="Uk9tNtOir4AJttoB1tT3-9" style="edgeStyle=orthogonalEdgeStyle;shape=connector;rounded=1;orthogonalLoop=1;jettySize=auto;html=1;exitX=1;exitY=0.5;exitDx=0;exitDy=0;exitPerimeter=0;entryX=0;entryY=0.5;entryDx=0;entryDy=0;entryPerimeter=0;labelBackgroundColor=default;strokeColor=default;fontFamily=Helvetica;fontSize=11;fontColor=default;endArrow=classic;" parent="1" source="Uk9tNtOir4AJttoB1tT3-3" target="fgkWMLVJ6PQbi83lySrl-1" edge="1">
          <mxGeometry relative="1" as="geometry">
            <mxPoint x="463.25" y="368.5" as="targetPoint" />
          </mxGeometry>
        </mxCell>
        <mxCell id="fgkWMLVJ6PQbi83lySrl-1" value="error" style="rhombus;whiteSpace=wrap;html=1;rounded=1;fillColor=#0050ef;fontColor=#ffffff;strokeColor=#001DBC;fontStyle=1;glass=0;sketch=0;fontSize=12;points=[[0,0.5,0,0,0],[0.5,0,0,0,0],[0.5,1,0,0,0],[1,0.5,0,0,0]];shadow=1;fontFamily=Helvetica;" parent="1" vertex="1">
          <mxGeometry x="600" y="280" width="80" height="80" as="geometry" />
        </mxCell>
        <mxCell id="Q7mnjypjolfxHuQ4Fn7u-1" value="Open Text File" style="rounded=1;whiteSpace=wrap;html=1;sketch=0;container=1;recursiveResize=0;verticalAlign=top;arcSize=6;fontStyle=1;autosize=0;points=[];absoluteArcSize=1;shadow=1;strokeColor=#001DBC;fillColor=#0050ef;fontColor=#ffffff;fontFamily=Helvetica;fontSize=11;" parent="1" vertex="1">
          <mxGeometry x="150" y="153" width="130" height="117" as="geometry">
            <mxRectangle x="-98" y="-1230" width="99" height="26" as="alternateBounds" />
          </mxGeometry>
        </mxCell>
        <mxCell id="Q7mnjypjolfxHuQ4Fn7u-2" value="filename" style="rounded=1;whiteSpace=wrap;html=1;sketch=0;points=[[0,0.5,0,0,0],[1,0.5,0,0,0]];arcSize=50;fontFamily=Helvetica;fontSize=11;fontColor=default;" parent="Q7mnjypjolfxHuQ4Fn7u-1" vertex="1">
          <mxGeometry x="-16.75" y="36" width="66" height="25" as="geometry" />
        </mxCell>
        <mxCell id="Q7mnjypjolfxHuQ4Fn7u-3" value="fd" style="rounded=1;whiteSpace=wrap;html=1;sketch=0;points=[[0,0.5,0,0,0],[1,0.5,0,0,0]];fillColor=#1ba1e2;fontColor=#ffffff;strokeColor=#006EAF;arcSize=50;fontFamily=Helvetica;fontSize=11;" parent="Q7mnjypjolfxHuQ4Fn7u-1" vertex="1">
          <mxGeometry x="84.75" y="36" width="66" height="25" as="geometry" />
        </mxCell>
        <mxCell id="Q7mnjypjolfxHuQ4Fn7u-4" value="error" style="rounded=1;whiteSpace=wrap;html=1;sketch=0;points=[[0,0.5,0,0,0],[1,0.5,0,0,0]];fillColor=#1ba1e2;fontColor=#ffffff;strokeColor=#006EAF;arcSize=50;fontFamily=Helvetica;fontSize=11;" parent="Q7mnjypjolfxHuQ4Fn7u-1" vertex="1">
          <mxGeometry x="84.75" y="77" width="66" height="25" as="geometry" />
        </mxCell>
        <mxCell id="Q7mnjypjolfxHuQ4Fn7u-6" style="edgeStyle=orthogonalEdgeStyle;shape=connector;rounded=1;orthogonalLoop=1;jettySize=auto;html=1;exitX=1;exitY=0.5;exitDx=0;exitDy=0;exitPerimeter=0;entryX=0;entryY=0.5;entryDx=0;entryDy=0;entryPerimeter=0;labelBackgroundColor=default;strokeColor=default;fontFamily=Helvetica;fontSize=11;fontColor=default;endArrow=classic;" parent="1" source="Q7mnjypjolfxHuQ4Fn7u-3" target="_DwD8Pvb7u_NGquOlMRM-2" edge="1">
          <mxGeometry relative="1" as="geometry" />
        </mxCell>
        <mxCell id="Q7mnjypjolfxHuQ4Fn7u-7" style="edgeStyle=orthogonalEdgeStyle;shape=connector;rounded=1;orthogonalLoop=1;jettySize=auto;html=1;exitX=1;exitY=0.5;exitDx=0;exitDy=0;exitPerimeter=0;entryX=0;entryY=0.5;entryDx=0;entryDy=0;entryPerimeter=0;labelBackgroundColor=default;strokeColor=default;fontFamily=Helvetica;fontSize=11;fontColor=default;endArrow=classic;" parent="1" source="Q7mnjypjolfxHuQ4Fn7u-4" target="fgkWMLVJ6PQbi83lySrl-1" edge="1">
          <mxGeometry relative="1" as="geometry">
            <Array as="points">
              <mxPoint x="340" y="243" />
              <mxPoint x="340" y="320" />
            </Array>
          </mxGeometry>
        </mxCell>
      </root>
    </mxGraphModel>
  </diagram>
  <diagram id="7DNM-eP9j6PZDW1tLhZQ" name="Delete Macro Definitions">
    <mxGraphModel dx="783" dy="561" grid="1" gridSize="10" guides="1" tooltips="1" connect="1" arrows="1" fold="1" page="1" pageScale="1" pageWidth="1100" pageHeight="850" math="0" shadow="0">
      <root>
        <mxCell id="0" />
        <mxCell id="1" parent="0" />
        <mxCell id="I6REY8XgrfC1Dy5Ot6Xa-1" value="&lt;div&gt;$ sed -E&lt;/div&gt;&lt;div&gt;&amp;nbsp; &amp;nbsp; -e &#39;/FIFO +\:\:/d&#39;&lt;/div&gt;&lt;div&gt;&amp;nbsp; &amp;nbsp; -e &#39;/fifo_push +\:\:/d&#39;&lt;/div&gt;&lt;div&gt;&amp;nbsp; &amp;nbsp; -e &#39;/fifo_pop +\:\:/d&#39;&lt;/div&gt;&lt;div&gt;&amp;nbsp; &amp;nbsp; -e &#39;/ENTER +\:\:/d&#39;&lt;/div&gt;&lt;div&gt;&amp;nbsp; &amp;nbsp; -e &#39;/EXIT +\:\:/d&#39;&lt;/div&gt;&lt;div&gt;&lt;br&gt;&lt;/div&gt;" style="rounded=1;sketch=0;container=1;recursiveResize=0;verticalAlign=top;arcSize=6;fontStyle=1;autosize=0;points=[];absoluteArcSize=1;shadow=1;strokeColor=#001DBC;fillColor=#0050ef;fontColor=#ffffff;fontFamily=Helvetica;fontSize=11;html=1;whiteSpace=wrap;align=left;spacingLeft=30;" vertex="1" parent="1">
          <mxGeometry x="200" y="120" width="210" height="100" as="geometry">
            <mxRectangle x="-98" y="-1230" width="99" height="26" as="alternateBounds" />
          </mxGeometry>
        </mxCell>
        <mxCell id="I6REY8XgrfC1Dy5Ot6Xa-2" value="stdin" style="rounded=1;whiteSpace=wrap;html=1;sketch=0;points=[[0,0.5,0,0,0],[1,0.5,0,0,0]];arcSize=50;" vertex="1" parent="I6REY8XgrfC1Dy5Ot6Xa-1">
          <mxGeometry x="-20" y="31" width="66" height="25" as="geometry" />
        </mxCell>
        <mxCell id="I6REY8XgrfC1Dy5Ot6Xa-3" value="stderr" style="rounded=1;whiteSpace=wrap;html=1;sketch=0;points=[[0,0.5,0,0,0],[1,0.5,0,0,0]];fillColor=#1ba1e2;fontColor=#ffffff;strokeColor=#006EAF;arcSize=50;fontFamily=Helvetica;fontSize=11;" vertex="1" parent="I6REY8XgrfC1Dy5Ot6Xa-1">
          <mxGeometry x="160" y="56" width="66" height="25" as="geometry" />
        </mxCell>
        <mxCell id="I6REY8XgrfC1Dy5Ot6Xa-4" value="stdout" style="rounded=1;whiteSpace=wrap;html=1;sketch=0;points=[[0,0.5,0,0,0],[1,0.5,0,0,0]];fillColor=#1ba1e2;fontColor=#ffffff;strokeColor=#006EAF;arcSize=50;" vertex="1" parent="I6REY8XgrfC1Dy5Ot6Xa-1">
          <mxGeometry x="160" y="20" width="66" height="25" as="geometry" />
        </mxCell>
        <mxCell id="I6REY8XgrfC1Dy5Ot6Xa-8" style="edgeStyle=orthogonalEdgeStyle;rounded=1;orthogonalLoop=1;jettySize=auto;html=1;entryX=0;entryY=0.5;entryDx=0;entryDy=0;entryPerimeter=0;" edge="1" parent="1" source="I6REY8XgrfC1Dy5Ot6Xa-5" target="I6REY8XgrfC1Dy5Ot6Xa-2">
          <mxGeometry relative="1" as="geometry" />
        </mxCell>
        <mxCell id="I6REY8XgrfC1Dy5Ot6Xa-5" value="stdin" style="rhombus;whiteSpace=wrap;html=1;rounded=1;fontStyle=1;glass=0;sketch=0;fontSize=12;points=[[0,0.5,0,0,0],[0.5,0,0,0,0],[0.5,1,0,0,0],[1,0.5,0,0,0]];shadow=1;" vertex="1" parent="1">
          <mxGeometry x="40" y="130" width="80" height="80" as="geometry" />
        </mxCell>
        <mxCell id="I6REY8XgrfC1Dy5Ot6Xa-6" value="stdout" style="rhombus;whiteSpace=wrap;html=1;rounded=1;fillColor=#0050ef;fontColor=#ffffff;strokeColor=#001DBC;fontStyle=1;glass=0;sketch=0;fontSize=12;points=[[0,0.5,0,0,0],[0.5,0,0,0,0],[0.5,1,0,0,0],[1,0.5,0,0,0]];shadow=1;" vertex="1" parent="1">
          <mxGeometry x="490" y="110" width="80" height="80" as="geometry" />
        </mxCell>
        <mxCell id="I6REY8XgrfC1Dy5Ot6Xa-7" value="stderr" style="rhombus;whiteSpace=wrap;html=1;rounded=1;fillColor=#0050ef;fontColor=#ffffff;strokeColor=#001DBC;fontStyle=1;glass=0;sketch=0;fontSize=12;points=[[0,0.5,0,0,0],[0.5,0,0,0,0],[0.5,1,0,0,0],[1,0.5,0,0,0]];shadow=1;" vertex="1" parent="1">
          <mxGeometry x="490" y="210" width="80" height="80" as="geometry" />
        </mxCell>
        <mxCell id="I6REY8XgrfC1Dy5Ot6Xa-12" style="edgeStyle=orthogonalEdgeStyle;shape=connector;rounded=1;orthogonalLoop=1;jettySize=auto;html=1;entryX=0;entryY=0.5;entryDx=0;entryDy=0;entryPerimeter=0;labelBackgroundColor=default;strokeColor=default;fontFamily=Helvetica;fontSize=11;fontColor=default;endArrow=classic;" edge="1" parent="1" source="I6REY8XgrfC1Dy5Ot6Xa-3" target="I6REY8XgrfC1Dy5Ot6Xa-7">
          <mxGeometry relative="1" as="geometry">
            <Array as="points">
              <mxPoint x="458" y="189" />
              <mxPoint x="458" y="250" />
            </Array>
          </mxGeometry>
        </mxCell>
        <mxCell id="I6REY8XgrfC1Dy5Ot6Xa-13" style="edgeStyle=orthogonalEdgeStyle;shape=connector;rounded=1;orthogonalLoop=1;jettySize=auto;html=1;exitX=1;exitY=0.5;exitDx=0;exitDy=0;exitPerimeter=0;entryX=0;entryY=0.5;entryDx=0;entryDy=0;entryPerimeter=0;labelBackgroundColor=default;strokeColor=default;fontFamily=Helvetica;fontSize=11;fontColor=default;endArrow=classic;" edge="1" parent="1" source="I6REY8XgrfC1Dy5Ot6Xa-4" target="I6REY8XgrfC1Dy5Ot6Xa-6">
          <mxGeometry relative="1" as="geometry" />
        </mxCell>
      </root>
    </mxGraphModel>
  </diagram>
  <diagram name="Comment Out Noise" id="ZL7gYHnSIY0B_cSu30ur">
    <mxGraphModel dx="783" dy="561" grid="1" gridSize="10" guides="1" tooltips="1" connect="1" arrows="1" fold="1" page="1" pageScale="1" pageWidth="1100" pageHeight="850" math="0" shadow="0">
      <root>
        <mxCell id="7Kt9DVhAJ9BCz7PAiOnh-0" />
        <mxCell id="7Kt9DVhAJ9BCz7PAiOnh-1" parent="7Kt9DVhAJ9BCz7PAiOnh-0" />
        <mxCell id="7Kt9DVhAJ9BCz7PAiOnh-2" value="&lt;div&gt;&lt;div&gt;$ sed -E&lt;/div&gt;&lt;div&gt;&amp;nbsp; &amp;nbsp; -e &#39;s/package /\/\/ package /&#39;&lt;/div&gt;&lt;div&gt;&amp;nbsp; &amp;nbsp; -e &#39;s/import /\/\/ import /&#39;&lt;/div&gt;&lt;/div&gt;&lt;div&gt;&lt;br&gt;&lt;/div&gt;" style="rounded=1;sketch=0;container=1;recursiveResize=0;verticalAlign=top;arcSize=6;fontStyle=1;autosize=0;points=[];absoluteArcSize=1;shadow=1;strokeColor=#001DBC;fillColor=#0050ef;fontColor=#ffffff;fontFamily=Helvetica;fontSize=11;html=1;whiteSpace=wrap;align=left;spacingLeft=30;" vertex="1" parent="7Kt9DVhAJ9BCz7PAiOnh-1">
          <mxGeometry x="200" y="120" width="210" height="140" as="geometry">
            <mxRectangle x="-98" y="-1230" width="99" height="26" as="alternateBounds" />
          </mxGeometry>
        </mxCell>
        <mxCell id="7Kt9DVhAJ9BCz7PAiOnh-3" value="stdin" style="rounded=1;whiteSpace=wrap;html=1;sketch=0;points=[[0,0.5,0,0,0],[1,0.5,0,0,0]];arcSize=50;" vertex="1" parent="7Kt9DVhAJ9BCz7PAiOnh-2">
          <mxGeometry x="-20" y="57.5" width="66" height="25" as="geometry" />
        </mxCell>
        <mxCell id="7Kt9DVhAJ9BCz7PAiOnh-4" value="stderr" style="rounded=1;whiteSpace=wrap;html=1;sketch=0;points=[[0,0.5,0,0,0],[1,0.5,0,0,0]];fillColor=#1ba1e2;fontColor=#ffffff;strokeColor=#006EAF;arcSize=50;fontFamily=Helvetica;fontSize=11;" vertex="1" parent="7Kt9DVhAJ9BCz7PAiOnh-2">
          <mxGeometry x="160" y="100" width="66" height="25" as="geometry" />
        </mxCell>
        <mxCell id="7Kt9DVhAJ9BCz7PAiOnh-5" value="stdout" style="rounded=1;whiteSpace=wrap;html=1;sketch=0;points=[[0,0.5,0,0,0],[1,0.5,0,0,0]];fillColor=#1ba1e2;fontColor=#ffffff;strokeColor=#006EAF;arcSize=50;" vertex="1" parent="7Kt9DVhAJ9BCz7PAiOnh-2">
          <mxGeometry x="160" y="56" width="66" height="25" as="geometry" />
        </mxCell>
        <mxCell id="7Kt9DVhAJ9BCz7PAiOnh-6" style="edgeStyle=orthogonalEdgeStyle;rounded=1;orthogonalLoop=1;jettySize=auto;html=1;entryX=0;entryY=0.5;entryDx=0;entryDy=0;entryPerimeter=0;" edge="1" parent="7Kt9DVhAJ9BCz7PAiOnh-1" source="7Kt9DVhAJ9BCz7PAiOnh-7" target="7Kt9DVhAJ9BCz7PAiOnh-3">
          <mxGeometry relative="1" as="geometry" />
        </mxCell>
        <mxCell id="7Kt9DVhAJ9BCz7PAiOnh-7" value="stdin" style="rhombus;whiteSpace=wrap;html=1;rounded=1;fontStyle=1;glass=0;sketch=0;fontSize=12;points=[[0,0.5,0,0,0],[0.5,0,0,0,0],[0.5,1,0,0,0],[1,0.5,0,0,0]];shadow=1;" vertex="1" parent="7Kt9DVhAJ9BCz7PAiOnh-1">
          <mxGeometry x="40" y="130" width="80" height="80" as="geometry" />
        </mxCell>
        <mxCell id="7Kt9DVhAJ9BCz7PAiOnh-8" value="stdout" style="rhombus;whiteSpace=wrap;html=1;rounded=1;fillColor=#0050ef;fontColor=#ffffff;strokeColor=#001DBC;fontStyle=1;glass=0;sketch=0;fontSize=12;points=[[0,0.5,0,0,0],[0.5,0,0,0,0],[0.5,1,0,0,0],[1,0.5,0,0,0]];shadow=1;" vertex="1" parent="7Kt9DVhAJ9BCz7PAiOnh-1">
          <mxGeometry x="490" y="110" width="80" height="80" as="geometry" />
        </mxCell>
        <mxCell id="7Kt9DVhAJ9BCz7PAiOnh-9" value="stderr" style="rhombus;whiteSpace=wrap;html=1;rounded=1;fillColor=#0050ef;fontColor=#ffffff;strokeColor=#001DBC;fontStyle=1;glass=0;sketch=0;fontSize=12;points=[[0,0.5,0,0,0],[0.5,0,0,0,0],[0.5,1,0,0,0],[1,0.5,0,0,0]];shadow=1;" vertex="1" parent="7Kt9DVhAJ9BCz7PAiOnh-1">
          <mxGeometry x="490" y="210" width="80" height="80" as="geometry" />
        </mxCell>
        <mxCell id="7Kt9DVhAJ9BCz7PAiOnh-10" style="edgeStyle=orthogonalEdgeStyle;shape=connector;rounded=1;orthogonalLoop=1;jettySize=auto;html=1;entryX=0;entryY=0.5;entryDx=0;entryDy=0;entryPerimeter=0;labelBackgroundColor=default;strokeColor=default;fontFamily=Helvetica;fontSize=11;fontColor=default;endArrow=classic;exitX=1;exitY=0.5;exitDx=0;exitDy=0;exitPerimeter=0;" edge="1" parent="7Kt9DVhAJ9BCz7PAiOnh-1" source="7Kt9DVhAJ9BCz7PAiOnh-4" target="7Kt9DVhAJ9BCz7PAiOnh-9">
          <mxGeometry relative="1" as="geometry">
            <Array as="points">
              <mxPoint x="458" y="233" />
              <mxPoint x="458" y="250" />
            </Array>
          </mxGeometry>
        </mxCell>
        <mxCell id="7Kt9DVhAJ9BCz7PAiOnh-11" style="edgeStyle=orthogonalEdgeStyle;shape=connector;rounded=1;orthogonalLoop=1;jettySize=auto;html=1;exitX=1;exitY=0.5;exitDx=0;exitDy=0;exitPerimeter=0;entryX=0;entryY=0.5;entryDx=0;entryDy=0;entryPerimeter=0;labelBackgroundColor=default;strokeColor=default;fontFamily=Helvetica;fontSize=11;fontColor=default;endArrow=classic;" edge="1" parent="7Kt9DVhAJ9BCz7PAiOnh-1" source="7Kt9DVhAJ9BCz7PAiOnh-5" target="7Kt9DVhAJ9BCz7PAiOnh-8">
          <mxGeometry relative="1" as="geometry" />
        </mxCell>
      </root>
    </mxGraphModel>
  </diagram>
  <diagram id="qXrWMDA3q8zXuZIIhLpZ" name="Tokenize">
    <mxGraphModel dx="1051" dy="652" grid="1" gridSize="10" guides="1" tooltips="1" connect="1" arrows="1" fold="1" page="1" pageScale="1" pageWidth="1100" pageHeight="850" math="0" shadow="0">
      <root>
        <mxCell id="0" />
        <mxCell id="1" parent="0" />
        <mxCell id="8KmL4ne3zJCd1u9em8IG-1" value="&lt;div&gt;Delete Macro Definitions&lt;/div&gt;" style="rounded=1;sketch=0;container=1;recursiveResize=0;verticalAlign=top;arcSize=6;fontStyle=1;autosize=0;points=[];absoluteArcSize=1;shadow=1;strokeColor=#001DBC;fillColor=#0050ef;fontColor=#ffffff;fontFamily=Helvetica;fontSize=11;html=1;whiteSpace=wrap;align=left;spacingLeft=30;" vertex="1" parent="1">
          <mxGeometry x="160" y="121.5" width="140" height="100" as="geometry">
            <mxRectangle x="-98" y="-1230" width="99" height="26" as="alternateBounds" />
          </mxGeometry>
        </mxCell>
        <mxCell id="8KmL4ne3zJCd1u9em8IG-2" value="stdin" style="rounded=1;whiteSpace=wrap;html=1;sketch=0;points=[[0,0.5,0,0,0],[1,0.5,0,0,0]];arcSize=50;" vertex="1" parent="8KmL4ne3zJCd1u9em8IG-1">
          <mxGeometry x="-20" y="31" width="66" height="25" as="geometry" />
        </mxCell>
        <mxCell id="8KmL4ne3zJCd1u9em8IG-3" value="stderr" style="rounded=1;whiteSpace=wrap;html=1;sketch=0;points=[[0,0.5,0,0,0],[1,0.5,0,0,0]];fillColor=#1ba1e2;fontColor=#ffffff;strokeColor=#006EAF;arcSize=50;fontFamily=Helvetica;fontSize=11;" vertex="1" parent="8KmL4ne3zJCd1u9em8IG-1">
          <mxGeometry x="94" y="56" width="66" height="25" as="geometry" />
        </mxCell>
        <mxCell id="8KmL4ne3zJCd1u9em8IG-4" value="stdout" style="rounded=1;whiteSpace=wrap;html=1;sketch=0;points=[[0,0.5,0,0,0],[1,0.5,0,0,0]];fillColor=#1ba1e2;fontColor=#ffffff;strokeColor=#006EAF;arcSize=50;" vertex="1" parent="8KmL4ne3zJCd1u9em8IG-1">
          <mxGeometry x="94" y="19.5" width="66" height="25" as="geometry" />
        </mxCell>
        <mxCell id="8KmL4ne3zJCd1u9em8IG-5" value="&lt;div&gt;Comment Out Noise&lt;/div&gt;" style="rounded=1;sketch=0;container=1;recursiveResize=0;verticalAlign=top;arcSize=6;fontStyle=1;autosize=0;points=[];absoluteArcSize=1;shadow=1;strokeColor=#001DBC;fillColor=#0050ef;fontColor=#ffffff;fontFamily=Helvetica;fontSize=11;html=1;whiteSpace=wrap;align=left;spacingLeft=30;" vertex="1" parent="1">
          <mxGeometry x="410" y="120" width="130" height="100" as="geometry">
            <mxRectangle x="-98" y="-1230" width="99" height="26" as="alternateBounds" />
          </mxGeometry>
        </mxCell>
        <mxCell id="8KmL4ne3zJCd1u9em8IG-6" value="stdin" style="rounded=1;whiteSpace=wrap;html=1;sketch=0;points=[[0,0.5,0,0,0],[1,0.5,0,0,0]];arcSize=50;" vertex="1" parent="8KmL4ne3zJCd1u9em8IG-5">
          <mxGeometry x="-20" y="31" width="66" height="25" as="geometry" />
        </mxCell>
        <mxCell id="8KmL4ne3zJCd1u9em8IG-7" value="stderr" style="rounded=1;whiteSpace=wrap;html=1;sketch=0;points=[[0,0.5,0,0,0],[1,0.5,0,0,0]];fillColor=#1ba1e2;fontColor=#ffffff;strokeColor=#006EAF;arcSize=50;fontFamily=Helvetica;fontSize=11;" vertex="1" parent="8KmL4ne3zJCd1u9em8IG-5">
          <mxGeometry x="94" y="56" width="66" height="25" as="geometry" />
        </mxCell>
        <mxCell id="8KmL4ne3zJCd1u9em8IG-8" value="stdout" style="rounded=1;whiteSpace=wrap;html=1;sketch=0;points=[[0,0.5,0,0,0],[1,0.5,0,0,0]];fillColor=#1ba1e2;fontColor=#ffffff;strokeColor=#006EAF;arcSize=50;" vertex="1" parent="8KmL4ne3zJCd1u9em8IG-5">
          <mxGeometry x="94" y="19.5" width="66" height="25" as="geometry" />
        </mxCell>
        <mxCell id="8KmL4ne3zJCd1u9em8IG-9" style="edgeStyle=orthogonalEdgeStyle;shape=connector;rounded=1;orthogonalLoop=1;jettySize=auto;html=1;exitX=1;exitY=0.5;exitDx=0;exitDy=0;exitPerimeter=0;entryX=0;entryY=0.5;entryDx=0;entryDy=0;entryPerimeter=0;labelBackgroundColor=default;strokeColor=default;fontFamily=Helvetica;fontSize=11;fontColor=default;endArrow=classic;" edge="1" parent="1" source="8KmL4ne3zJCd1u9em8IG-4" target="8KmL4ne3zJCd1u9em8IG-6">
          <mxGeometry relative="1" as="geometry" />
        </mxCell>
        <mxCell id="8KmL4ne3zJCd1u9em8IG-10" value="&lt;div&gt;$ ./macros.py&lt;/div&gt;" style="rounded=1;sketch=0;container=1;recursiveResize=0;verticalAlign=top;arcSize=6;fontStyle=1;autosize=0;points=[];absoluteArcSize=1;shadow=1;strokeColor=#001DBC;fillColor=#0050ef;fontColor=#ffffff;fontFamily=Helvetica;fontSize=11;html=1;whiteSpace=wrap;align=left;spacingLeft=30;" vertex="1" parent="1">
          <mxGeometry x="650" y="120" width="130" height="100" as="geometry">
            <mxRectangle x="-98" y="-1230" width="99" height="26" as="alternateBounds" />
          </mxGeometry>
        </mxCell>
        <mxCell id="8KmL4ne3zJCd1u9em8IG-11" value="stdin" style="rounded=1;whiteSpace=wrap;html=1;sketch=0;points=[[0,0.5,0,0,0],[1,0.5,0,0,0]];arcSize=50;" vertex="1" parent="8KmL4ne3zJCd1u9em8IG-10">
          <mxGeometry x="-20" y="31" width="66" height="25" as="geometry" />
        </mxCell>
        <mxCell id="8KmL4ne3zJCd1u9em8IG-12" value="stderr" style="rounded=1;whiteSpace=wrap;html=1;sketch=0;points=[[0,0.5,0,0,0],[1,0.5,0,0,0]];fillColor=#1ba1e2;fontColor=#ffffff;strokeColor=#006EAF;arcSize=50;fontFamily=Helvetica;fontSize=11;" vertex="1" parent="8KmL4ne3zJCd1u9em8IG-10">
          <mxGeometry x="94" y="56" width="66" height="25" as="geometry" />
        </mxCell>
        <mxCell id="8KmL4ne3zJCd1u9em8IG-13" value="stdout" style="rounded=1;whiteSpace=wrap;html=1;sketch=0;points=[[0,0.5,0,0,0],[1,0.5,0,0,0]];fillColor=#1ba1e2;fontColor=#ffffff;strokeColor=#006EAF;arcSize=50;" vertex="1" parent="8KmL4ne3zJCd1u9em8IG-10">
          <mxGeometry x="94" y="19.5" width="66" height="25" as="geometry" />
        </mxCell>
        <mxCell id="8KmL4ne3zJCd1u9em8IG-14" style="edgeStyle=orthogonalEdgeStyle;shape=connector;rounded=1;orthogonalLoop=1;jettySize=auto;html=1;exitX=1;exitY=0.5;exitDx=0;exitDy=0;exitPerimeter=0;labelBackgroundColor=default;strokeColor=default;fontFamily=Helvetica;fontSize=11;fontColor=default;endArrow=classic;" edge="1" parent="1" source="8KmL4ne3zJCd1u9em8IG-8" target="8KmL4ne3zJCd1u9em8IG-11">
          <mxGeometry relative="1" as="geometry" />
        </mxCell>
        <mxCell id="8KmL4ne3zJCd1u9em8IG-15" value="&lt;div&gt;$ ./annotations.py&lt;/div&gt;" style="rounded=1;sketch=0;container=1;recursiveResize=0;verticalAlign=top;arcSize=6;fontStyle=1;autosize=0;points=[];absoluteArcSize=1;shadow=1;strokeColor=#001DBC;fillColor=#0050ef;fontColor=#ffffff;fontFamily=Helvetica;fontSize=11;html=1;whiteSpace=wrap;align=left;spacingLeft=30;" vertex="1" parent="1">
          <mxGeometry x="910" y="120" width="130" height="100" as="geometry">
            <mxRectangle x="-98" y="-1230" width="99" height="26" as="alternateBounds" />
          </mxGeometry>
        </mxCell>
        <mxCell id="8KmL4ne3zJCd1u9em8IG-16" value="stdin" style="rounded=1;whiteSpace=wrap;html=1;sketch=0;points=[[0,0.5,0,0,0],[1,0.5,0,0,0]];arcSize=50;" vertex="1" parent="8KmL4ne3zJCd1u9em8IG-15">
          <mxGeometry x="-20" y="31" width="66" height="25" as="geometry" />
        </mxCell>
        <mxCell id="8KmL4ne3zJCd1u9em8IG-17" value="stderr" style="rounded=1;whiteSpace=wrap;html=1;sketch=0;points=[[0,0.5,0,0,0],[1,0.5,0,0,0]];fillColor=#1ba1e2;fontColor=#ffffff;strokeColor=#006EAF;arcSize=50;fontFamily=Helvetica;fontSize=11;" vertex="1" parent="8KmL4ne3zJCd1u9em8IG-15">
          <mxGeometry x="94" y="56" width="66" height="25" as="geometry" />
        </mxCell>
        <mxCell id="8KmL4ne3zJCd1u9em8IG-18" value="stdout" style="rounded=1;whiteSpace=wrap;html=1;sketch=0;points=[[0,0.5,0,0,0],[1,0.5,0,0,0]];fillColor=#1ba1e2;fontColor=#ffffff;strokeColor=#006EAF;arcSize=50;" vertex="1" parent="8KmL4ne3zJCd1u9em8IG-15">
          <mxGeometry x="94" y="19.5" width="66" height="25" as="geometry" />
        </mxCell>
        <mxCell id="8KmL4ne3zJCd1u9em8IG-19" value="&lt;div&gt;$ ./convertws.py&lt;/div&gt;" style="rounded=1;sketch=0;container=1;recursiveResize=0;verticalAlign=top;arcSize=6;fontStyle=1;autosize=0;points=[];absoluteArcSize=1;shadow=1;strokeColor=#001DBC;fillColor=#0050ef;fontColor=#ffffff;fontFamily=Helvetica;fontSize=11;html=1;whiteSpace=wrap;align=left;spacingLeft=30;" vertex="1" parent="1">
          <mxGeometry x="1140" y="120" width="130" height="100" as="geometry">
            <mxRectangle x="-98" y="-1230" width="99" height="26" as="alternateBounds" />
          </mxGeometry>
        </mxCell>
        <mxCell id="8KmL4ne3zJCd1u9em8IG-20" value="stdin" style="rounded=1;whiteSpace=wrap;html=1;sketch=0;points=[[0,0.5,0,0,0],[1,0.5,0,0,0]];arcSize=50;" vertex="1" parent="8KmL4ne3zJCd1u9em8IG-19">
          <mxGeometry x="-20" y="31" width="66" height="25" as="geometry" />
        </mxCell>
        <mxCell id="8KmL4ne3zJCd1u9em8IG-21" value="stderr" style="rounded=1;whiteSpace=wrap;html=1;sketch=0;points=[[0,0.5,0,0,0],[1,0.5,0,0,0]];fillColor=#1ba1e2;fontColor=#ffffff;strokeColor=#006EAF;arcSize=50;fontFamily=Helvetica;fontSize=11;" vertex="1" parent="8KmL4ne3zJCd1u9em8IG-19">
          <mxGeometry x="94" y="56" width="66" height="25" as="geometry" />
        </mxCell>
        <mxCell id="8KmL4ne3zJCd1u9em8IG-22" value="stdout" style="rounded=1;whiteSpace=wrap;html=1;sketch=0;points=[[0,0.5,0,0,0],[1,0.5,0,0,0]];fillColor=#1ba1e2;fontColor=#ffffff;strokeColor=#006EAF;arcSize=50;" vertex="1" parent="8KmL4ne3zJCd1u9em8IG-19">
          <mxGeometry x="94" y="19.5" width="66" height="25" as="geometry" />
        </mxCell>
        <mxCell id="8KmL4ne3zJCd1u9em8IG-23" value="&lt;div&gt;$ ./multi-char-operators.py&lt;/div&gt;" style="rounded=1;sketch=0;container=1;recursiveResize=0;verticalAlign=top;arcSize=6;fontStyle=1;autosize=0;points=[];absoluteArcSize=1;shadow=1;strokeColor=#001DBC;fillColor=#0050ef;fontColor=#ffffff;fontFamily=Helvetica;fontSize=11;html=1;whiteSpace=wrap;align=left;spacingLeft=30;" vertex="1" parent="1">
          <mxGeometry x="1370" y="120" width="130" height="100" as="geometry">
            <mxRectangle x="-98" y="-1230" width="99" height="26" as="alternateBounds" />
          </mxGeometry>
        </mxCell>
        <mxCell id="8KmL4ne3zJCd1u9em8IG-24" value="stdin" style="rounded=1;whiteSpace=wrap;html=1;sketch=0;points=[[0,0.5,0,0,0],[1,0.5,0,0,0]];arcSize=50;" vertex="1" parent="8KmL4ne3zJCd1u9em8IG-23">
          <mxGeometry x="-20" y="31" width="66" height="25" as="geometry" />
        </mxCell>
        <mxCell id="8KmL4ne3zJCd1u9em8IG-25" value="stderr" style="rounded=1;whiteSpace=wrap;html=1;sketch=0;points=[[0,0.5,0,0,0],[1,0.5,0,0,0]];fillColor=#1ba1e2;fontColor=#ffffff;strokeColor=#006EAF;arcSize=50;fontFamily=Helvetica;fontSize=11;" vertex="1" parent="8KmL4ne3zJCd1u9em8IG-23">
          <mxGeometry x="94" y="56" width="66" height="25" as="geometry" />
        </mxCell>
        <mxCell id="8KmL4ne3zJCd1u9em8IG-26" value="stdout" style="rounded=1;whiteSpace=wrap;html=1;sketch=0;points=[[0,0.5,0,0,0],[1,0.5,0,0,0]];fillColor=#1ba1e2;fontColor=#ffffff;strokeColor=#006EAF;arcSize=50;" vertex="1" parent="8KmL4ne3zJCd1u9em8IG-23">
          <mxGeometry x="94" y="19.5" width="66" height="25" as="geometry" />
        </mxCell>
        <mxCell id="8KmL4ne3zJCd1u9em8IG-27" style="edgeStyle=orthogonalEdgeStyle;shape=connector;rounded=1;orthogonalLoop=1;jettySize=auto;html=1;exitX=1;exitY=0.5;exitDx=0;exitDy=0;exitPerimeter=0;entryX=0;entryY=0.5;entryDx=0;entryDy=0;entryPerimeter=0;labelBackgroundColor=default;strokeColor=default;fontFamily=Helvetica;fontSize=11;fontColor=default;endArrow=classic;" edge="1" parent="1" source="8KmL4ne3zJCd1u9em8IG-22" target="8KmL4ne3zJCd1u9em8IG-24">
          <mxGeometry relative="1" as="geometry" />
        </mxCell>
        <mxCell id="8KmL4ne3zJCd1u9em8IG-28" style="edgeStyle=orthogonalEdgeStyle;shape=connector;rounded=1;orthogonalLoop=1;jettySize=auto;html=1;exitX=1;exitY=0.5;exitDx=0;exitDy=0;exitPerimeter=0;entryX=0;entryY=0.5;entryDx=0;entryDy=0;entryPerimeter=0;labelBackgroundColor=default;strokeColor=default;fontFamily=Helvetica;fontSize=11;fontColor=default;endArrow=classic;" edge="1" parent="1" source="8KmL4ne3zJCd1u9em8IG-18" target="8KmL4ne3zJCd1u9em8IG-20">
          <mxGeometry relative="1" as="geometry" />
        </mxCell>
        <mxCell id="8KmL4ne3zJCd1u9em8IG-29" style="edgeStyle=orthogonalEdgeStyle;shape=connector;rounded=1;orthogonalLoop=1;jettySize=auto;html=1;entryX=0;entryY=0.5;entryDx=0;entryDy=0;entryPerimeter=0;labelBackgroundColor=default;strokeColor=default;fontFamily=Helvetica;fontSize=11;fontColor=default;endArrow=classic;" edge="1" parent="1" source="8KmL4ne3zJCd1u9em8IG-13" target="8KmL4ne3zJCd1u9em8IG-16">
          <mxGeometry relative="1" as="geometry" />
        </mxCell>
        <mxCell id="7gv7D2z61PF5rE1XisDk-3" style="edgeStyle=orthogonalEdgeStyle;rounded=1;orthogonalLoop=1;jettySize=auto;html=1;entryX=0;entryY=0.5;entryDx=0;entryDy=0;entryPerimeter=0;" edge="1" parent="1" source="7gv7D2z61PF5rE1XisDk-1" target="8KmL4ne3zJCd1u9em8IG-2">
          <mxGeometry relative="1" as="geometry" />
        </mxCell>
        <mxCell id="7gv7D2z61PF5rE1XisDk-1" value="stdin" style="rhombus;whiteSpace=wrap;html=1;rounded=1;fontStyle=1;glass=0;sketch=0;fontSize=12;points=[[0,0.5,0,0,0],[0.5,0,0,0,0],[0.5,1,0,0,0],[1,0.5,0,0,0]];shadow=1;" vertex="1" parent="1">
          <mxGeometry x="20" y="125" width="80" height="80" as="geometry" />
        </mxCell>
        <mxCell id="7gv7D2z61PF5rE1XisDk-2" value="stdout" style="rhombus;whiteSpace=wrap;html=1;rounded=1;fillColor=#0050ef;fontColor=#ffffff;strokeColor=#001DBC;fontStyle=1;glass=0;sketch=0;fontSize=12;points=[[0,0.5,0,0,0],[0.5,0,0,0,0],[0.5,1,0,0,0],[1,0.5,0,0,0]];shadow=1;" vertex="1" parent="1">
          <mxGeometry x="2420" y="112" width="80" height="80" as="geometry" />
        </mxCell>
        <mxCell id="7gv7D2z61PF5rE1XisDk-4" value="stderr" style="rhombus;whiteSpace=wrap;html=1;rounded=1;fillColor=#0050ef;fontColor=#ffffff;strokeColor=#001DBC;fontStyle=1;glass=0;sketch=0;fontSize=12;points=[[0,0.5,0,0,0],[0.5,0,0,0,0],[0.5,1,0,0,0],[1,0.5,0,0,0]];shadow=1;" vertex="1" parent="1">
          <mxGeometry x="2420" y="240" width="80" height="80" as="geometry" />
        </mxCell>
        <mxCell id="7gv7D2z61PF5rE1XisDk-6" style="edgeStyle=orthogonalEdgeStyle;shape=connector;rounded=1;orthogonalLoop=1;jettySize=auto;html=1;exitX=1;exitY=0.5;exitDx=0;exitDy=0;exitPerimeter=0;entryX=0;entryY=0.5;entryDx=0;entryDy=0;entryPerimeter=0;labelBackgroundColor=default;strokeColor=default;fontFamily=Helvetica;fontSize=11;fontColor=default;endArrow=classic;" edge="1" parent="1" source="8KmL4ne3zJCd1u9em8IG-25" target="7gv7D2z61PF5rE1XisDk-4">
          <mxGeometry relative="1" as="geometry">
            <Array as="points">
              <mxPoint x="1560" y="189" />
              <mxPoint x="1560" y="280" />
            </Array>
          </mxGeometry>
        </mxCell>
        <mxCell id="Ml-c-JiIo31JlMHURZ8M-1" value="$ ./fab odincomment.ohm odincomment.fab support.js" style="rounded=1;whiteSpace=wrap;html=1;sketch=0;container=1;recursiveResize=0;verticalAlign=top;arcSize=6;fontStyle=1;autosize=0;points=[];absoluteArcSize=1;shadow=1;strokeColor=#001DBC;fillColor=#0050ef;fontColor=#ffffff;fontFamily=Helvetica;fontSize=11;" vertex="1" parent="1">
          <mxGeometry x="1630" y="72" width="130" height="160" as="geometry">
            <mxRectangle x="-98" y="-1230" width="99" height="26" as="alternateBounds" />
          </mxGeometry>
        </mxCell>
        <mxCell id="Ml-c-JiIo31JlMHURZ8M-2" value="stdin" style="rounded=1;whiteSpace=wrap;html=1;sketch=0;points=[[0,0.5,0,0,0],[1,0.5,0,0,0]];arcSize=50;fontFamily=Helvetica;fontSize=11;fontColor=default;" vertex="1" parent="Ml-c-JiIo31JlMHURZ8M-1">
          <mxGeometry x="-16.75" y="70" width="66" height="25" as="geometry" />
        </mxCell>
        <mxCell id="Ml-c-JiIo31JlMHURZ8M-3" value="stdout" style="rounded=1;whiteSpace=wrap;html=1;sketch=0;points=[[0,0.5,0,0,0],[1,0.5,0,0,0]];fillColor=#1ba1e2;fontColor=#ffffff;strokeColor=#006EAF;arcSize=50;fontFamily=Helvetica;fontSize=11;" vertex="1" parent="Ml-c-JiIo31JlMHURZ8M-1">
          <mxGeometry x="88.75" y="70" width="66" height="25" as="geometry" />
        </mxCell>
        <mxCell id="Ml-c-JiIo31JlMHURZ8M-4" value="stderr" style="rounded=1;whiteSpace=wrap;html=1;sketch=0;points=[[0,0.5,0,0,0],[1,0.5,0,0,0]];fillColor=#1ba1e2;fontColor=#ffffff;strokeColor=#006EAF;arcSize=50;fontFamily=Helvetica;fontSize=11;" vertex="1" parent="Ml-c-JiIo31JlMHURZ8M-1">
          <mxGeometry x="90" y="110" width="66" height="25" as="geometry" />
        </mxCell>
        <mxCell id="Ml-c-JiIo31JlMHURZ8M-5" style="edgeStyle=orthogonalEdgeStyle;shape=connector;rounded=1;orthogonalLoop=1;jettySize=auto;html=1;exitX=1;exitY=0.5;exitDx=0;exitDy=0;exitPerimeter=0;entryX=0;entryY=0.5;entryDx=0;entryDy=0;entryPerimeter=0;labelBackgroundColor=default;strokeColor=default;fontFamily=Helvetica;fontSize=11;fontColor=default;endArrow=classic;" edge="1" parent="1" source="8KmL4ne3zJCd1u9em8IG-21" target="7gv7D2z61PF5rE1XisDk-4">
          <mxGeometry relative="1" as="geometry">
            <Array as="points">
              <mxPoint x="1340" y="189" />
              <mxPoint x="1340" y="280" />
            </Array>
          </mxGeometry>
        </mxCell>
        <mxCell id="Ml-c-JiIo31JlMHURZ8M-6" style="edgeStyle=orthogonalEdgeStyle;shape=connector;rounded=1;orthogonalLoop=1;jettySize=auto;html=1;exitX=1;exitY=0.5;exitDx=0;exitDy=0;exitPerimeter=0;labelBackgroundColor=default;strokeColor=default;fontFamily=Helvetica;fontSize=11;fontColor=default;endArrow=classic;" edge="1" parent="1" source="8KmL4ne3zJCd1u9em8IG-17" target="7gv7D2z61PF5rE1XisDk-4">
          <mxGeometry relative="1" as="geometry">
            <Array as="points">
              <mxPoint x="1100" y="189" />
              <mxPoint x="1100" y="280" />
            </Array>
          </mxGeometry>
        </mxCell>
        <mxCell id="Ml-c-JiIo31JlMHURZ8M-7" style="edgeStyle=orthogonalEdgeStyle;shape=connector;rounded=1;orthogonalLoop=1;jettySize=auto;html=1;labelBackgroundColor=default;strokeColor=default;fontFamily=Helvetica;fontSize=11;fontColor=default;endArrow=classic;" edge="1" parent="1" source="8KmL4ne3zJCd1u9em8IG-12" target="7gv7D2z61PF5rE1XisDk-4">
          <mxGeometry relative="1" as="geometry">
            <Array as="points">
              <mxPoint x="840" y="189" />
              <mxPoint x="840" y="280" />
            </Array>
          </mxGeometry>
        </mxCell>
        <mxCell id="Ml-c-JiIo31JlMHURZ8M-8" style="edgeStyle=orthogonalEdgeStyle;shape=connector;rounded=1;orthogonalLoop=1;jettySize=auto;html=1;exitX=1;exitY=0.5;exitDx=0;exitDy=0;exitPerimeter=0;labelBackgroundColor=default;strokeColor=default;fontFamily=Helvetica;fontSize=11;fontColor=default;endArrow=classic;" edge="1" parent="1" source="8KmL4ne3zJCd1u9em8IG-7" target="7gv7D2z61PF5rE1XisDk-4">
          <mxGeometry relative="1" as="geometry">
            <Array as="points">
              <mxPoint x="600" y="189" />
              <mxPoint x="600" y="280" />
            </Array>
          </mxGeometry>
        </mxCell>
        <mxCell id="Ml-c-JiIo31JlMHURZ8M-9" style="edgeStyle=orthogonalEdgeStyle;shape=connector;rounded=1;orthogonalLoop=1;jettySize=auto;html=1;labelBackgroundColor=default;strokeColor=default;fontFamily=Helvetica;fontSize=11;fontColor=default;endArrow=classic;" edge="1" parent="1" source="8KmL4ne3zJCd1u9em8IG-3" target="7gv7D2z61PF5rE1XisDk-4">
          <mxGeometry relative="1" as="geometry">
            <Array as="points">
              <mxPoint x="350" y="190" />
              <mxPoint x="350" y="280" />
            </Array>
          </mxGeometry>
        </mxCell>
        <mxCell id="3Inn5kZ1OY-to2Ly3Qg1-2" style="edgeStyle=orthogonalEdgeStyle;shape=connector;rounded=1;orthogonalLoop=1;jettySize=auto;html=1;exitX=1;exitY=0.5;exitDx=0;exitDy=0;exitPerimeter=0;entryX=0;entryY=0.5;entryDx=0;entryDy=0;entryPerimeter=0;labelBackgroundColor=default;strokeColor=default;fontFamily=Helvetica;fontSize=11;fontColor=default;endArrow=classic;" edge="1" parent="1" source="Ml-c-JiIo31JlMHURZ8M-4" target="7gv7D2z61PF5rE1XisDk-4">
          <mxGeometry relative="1" as="geometry">
            <Array as="points">
              <mxPoint x="1820" y="195" />
              <mxPoint x="1820" y="280" />
            </Array>
          </mxGeometry>
        </mxCell>
        <mxCell id="3Inn5kZ1OY-to2Ly3Qg1-5" style="edgeStyle=orthogonalEdgeStyle;shape=connector;rounded=1;orthogonalLoop=1;jettySize=auto;html=1;exitX=1;exitY=0.5;exitDx=0;exitDy=0;exitPerimeter=0;entryX=0;entryY=0.5;entryDx=0;entryDy=0;entryPerimeter=0;labelBackgroundColor=default;strokeColor=default;fontFamily=Helvetica;fontSize=11;fontColor=default;endArrow=classic;" edge="1" parent="1" source="8KmL4ne3zJCd1u9em8IG-26" target="Ml-c-JiIo31JlMHURZ8M-2">
          <mxGeometry relative="1" as="geometry" />
        </mxCell>
        <mxCell id="3Inn5kZ1OY-to2Ly3Qg1-7" value="$ ./fab odinstrings.ohm odinstrings.fab support.js" style="rounded=1;whiteSpace=wrap;html=1;sketch=0;container=1;recursiveResize=0;verticalAlign=top;arcSize=6;fontStyle=1;autosize=0;points=[];absoluteArcSize=1;shadow=1;strokeColor=#001DBC;fillColor=#0050ef;fontColor=#ffffff;fontFamily=Helvetica;fontSize=11;" vertex="1" parent="1">
          <mxGeometry x="1886.75" y="72" width="130" height="160" as="geometry">
            <mxRectangle x="-98" y="-1230" width="99" height="26" as="alternateBounds" />
          </mxGeometry>
        </mxCell>
        <mxCell id="3Inn5kZ1OY-to2Ly3Qg1-8" value="stdin" style="rounded=1;whiteSpace=wrap;html=1;sketch=0;points=[[0,0.5,0,0,0],[1,0.5,0,0,0]];arcSize=50;fontFamily=Helvetica;fontSize=11;fontColor=default;" vertex="1" parent="3Inn5kZ1OY-to2Ly3Qg1-7">
          <mxGeometry x="-16.75" y="70" width="66" height="25" as="geometry" />
        </mxCell>
        <mxCell id="3Inn5kZ1OY-to2Ly3Qg1-9" value="stdout" style="rounded=1;whiteSpace=wrap;html=1;sketch=0;points=[[0,0.5,0,0,0],[1,0.5,0,0,0]];fillColor=#1ba1e2;fontColor=#ffffff;strokeColor=#006EAF;arcSize=50;fontFamily=Helvetica;fontSize=11;" vertex="1" parent="3Inn5kZ1OY-to2Ly3Qg1-7">
          <mxGeometry x="88.75" y="70" width="66" height="25" as="geometry" />
        </mxCell>
        <mxCell id="3Inn5kZ1OY-to2Ly3Qg1-10" value="stderr" style="rounded=1;whiteSpace=wrap;html=1;sketch=0;points=[[0,0.5,0,0,0],[1,0.5,0,0,0]];fillColor=#1ba1e2;fontColor=#ffffff;strokeColor=#006EAF;arcSize=50;fontFamily=Helvetica;fontSize=11;" vertex="1" parent="3Inn5kZ1OY-to2Ly3Qg1-7">
          <mxGeometry x="90" y="110" width="66" height="25" as="geometry" />
        </mxCell>
        <mxCell id="3Inn5kZ1OY-to2Ly3Qg1-11" value="$ ./fab odinsymbols.ohm odinsymbols.fab support.js" style="rounded=1;whiteSpace=wrap;html=1;sketch=0;container=1;recursiveResize=0;verticalAlign=top;arcSize=6;fontStyle=1;autosize=0;points=[];absoluteArcSize=1;shadow=1;strokeColor=#001DBC;fillColor=#0050ef;fontColor=#ffffff;fontFamily=Helvetica;fontSize=11;" vertex="1" parent="1">
          <mxGeometry x="2146.75" y="72" width="130" height="160" as="geometry">
            <mxRectangle x="-98" y="-1230" width="99" height="26" as="alternateBounds" />
          </mxGeometry>
        </mxCell>
        <mxCell id="3Inn5kZ1OY-to2Ly3Qg1-12" value="stdin" style="rounded=1;whiteSpace=wrap;html=1;sketch=0;points=[[0,0.5,0,0,0],[1,0.5,0,0,0]];arcSize=50;fontFamily=Helvetica;fontSize=11;fontColor=default;" vertex="1" parent="3Inn5kZ1OY-to2Ly3Qg1-11">
          <mxGeometry x="-16.75" y="70" width="66" height="25" as="geometry" />
        </mxCell>
        <mxCell id="3Inn5kZ1OY-to2Ly3Qg1-13" value="stdout" style="rounded=1;whiteSpace=wrap;html=1;sketch=0;points=[[0,0.5,0,0,0],[1,0.5,0,0,0]];fillColor=#1ba1e2;fontColor=#ffffff;strokeColor=#006EAF;arcSize=50;fontFamily=Helvetica;fontSize=11;" vertex="1" parent="3Inn5kZ1OY-to2Ly3Qg1-11">
          <mxGeometry x="88.75" y="70" width="66" height="25" as="geometry" />
        </mxCell>
        <mxCell id="3Inn5kZ1OY-to2Ly3Qg1-14" value="stderr" style="rounded=1;whiteSpace=wrap;html=1;sketch=0;points=[[0,0.5,0,0,0],[1,0.5,0,0,0]];fillColor=#1ba1e2;fontColor=#ffffff;strokeColor=#006EAF;arcSize=50;fontFamily=Helvetica;fontSize=11;" vertex="1" parent="3Inn5kZ1OY-to2Ly3Qg1-11">
          <mxGeometry x="90" y="110" width="66" height="25" as="geometry" />
        </mxCell>
        <mxCell id="3Inn5kZ1OY-to2Ly3Qg1-15" style="edgeStyle=orthogonalEdgeStyle;shape=connector;rounded=1;orthogonalLoop=1;jettySize=auto;html=1;exitX=1;exitY=0.5;exitDx=0;exitDy=0;exitPerimeter=0;entryX=0;entryY=0.5;entryDx=0;entryDy=0;entryPerimeter=0;labelBackgroundColor=default;strokeColor=default;fontFamily=Helvetica;fontSize=11;fontColor=default;endArrow=classic;" edge="1" parent="1" source="Ml-c-JiIo31JlMHURZ8M-3" target="3Inn5kZ1OY-to2Ly3Qg1-8">
          <mxGeometry relative="1" as="geometry" />
        </mxCell>
        <mxCell id="3Inn5kZ1OY-to2Ly3Qg1-16" style="edgeStyle=orthogonalEdgeStyle;shape=connector;rounded=1;orthogonalLoop=1;jettySize=auto;html=1;exitX=1;exitY=0.5;exitDx=0;exitDy=0;exitPerimeter=0;entryX=0;entryY=0.5;entryDx=0;entryDy=0;entryPerimeter=0;labelBackgroundColor=default;strokeColor=default;fontFamily=Helvetica;fontSize=11;fontColor=default;endArrow=classic;" edge="1" parent="1" source="3Inn5kZ1OY-to2Ly3Qg1-9" target="3Inn5kZ1OY-to2Ly3Qg1-12">
          <mxGeometry relative="1" as="geometry" />
        </mxCell>
        <mxCell id="3Inn5kZ1OY-to2Ly3Qg1-17" style="edgeStyle=orthogonalEdgeStyle;shape=connector;rounded=1;orthogonalLoop=1;jettySize=auto;html=1;exitX=1;exitY=0.5;exitDx=0;exitDy=0;exitPerimeter=0;entryX=0;entryY=0.5;entryDx=0;entryDy=0;entryPerimeter=0;labelBackgroundColor=default;strokeColor=default;fontFamily=Helvetica;fontSize=11;fontColor=default;endArrow=classic;" edge="1" parent="1" source="3Inn5kZ1OY-to2Ly3Qg1-13" target="7gv7D2z61PF5rE1XisDk-2">
          <mxGeometry relative="1" as="geometry" />
        </mxCell>
        <mxCell id="3Inn5kZ1OY-to2Ly3Qg1-18" style="edgeStyle=orthogonalEdgeStyle;shape=connector;rounded=1;orthogonalLoop=1;jettySize=auto;html=1;exitX=1;exitY=0.5;exitDx=0;exitDy=0;exitPerimeter=0;entryX=0;entryY=0.5;entryDx=0;entryDy=0;entryPerimeter=0;labelBackgroundColor=default;strokeColor=default;fontFamily=Helvetica;fontSize=11;fontColor=default;endArrow=classic;" edge="1" parent="1" source="3Inn5kZ1OY-to2Ly3Qg1-14" target="7gv7D2z61PF5rE1XisDk-4">
          <mxGeometry relative="1" as="geometry" />
        </mxCell>
        <mxCell id="3Inn5kZ1OY-to2Ly3Qg1-19" style="edgeStyle=orthogonalEdgeStyle;shape=connector;rounded=1;orthogonalLoop=1;jettySize=auto;html=1;exitX=1;exitY=0.5;exitDx=0;exitDy=0;exitPerimeter=0;labelBackgroundColor=default;strokeColor=default;fontFamily=Helvetica;fontSize=11;fontColor=default;endArrow=classic;" edge="1" parent="1" source="3Inn5kZ1OY-to2Ly3Qg1-10" target="7gv7D2z61PF5rE1XisDk-4">
          <mxGeometry relative="1" as="geometry">
            <Array as="points">
              <mxPoint x="2080" y="195" />
              <mxPoint x="2080" y="280" />
            </Array>
          </mxGeometry>
        </mxCell>
      </root>
    </mxGraphModel>
  </diagram>
  <diagram id="4Efi7lNGqQ5AMBJHcXes" name="Delete Comments">
    <mxGraphModel dx="998" dy="619" grid="1" gridSize="10" guides="1" tooltips="1" connect="1" arrows="1" fold="1" page="1" pageScale="1" pageWidth="1100" pageHeight="850" math="0" shadow="0">
      <root>
        <mxCell id="0" />
        <mxCell id="1" parent="0" />
        <mxCell id="k4lCobAsCoqM1xwQpoBC-1" value="&lt;div&gt;$ ./fab odindeletecomments.ohm odindeletecomments.fab support.js&lt;/div&gt;" style="rounded=1;sketch=0;container=1;recursiveResize=0;verticalAlign=top;arcSize=6;fontStyle=1;autosize=0;points=[];absoluteArcSize=1;shadow=1;strokeColor=#001DBC;fillColor=#0050ef;fontColor=#ffffff;fontFamily=Helvetica;fontSize=11;html=1;whiteSpace=wrap;align=left;spacingLeft=30;" vertex="1" parent="1">
          <mxGeometry x="230" y="80" width="190" height="160" as="geometry">
            <mxRectangle x="-98" y="-1230" width="99" height="26" as="alternateBounds" />
          </mxGeometry>
        </mxCell>
        <mxCell id="k4lCobAsCoqM1xwQpoBC-2" value="stdin" style="rounded=1;whiteSpace=wrap;html=1;sketch=0;points=[[0,0.5,0,0,0],[1,0.5,0,0,0]];arcSize=50;" vertex="1" parent="k4lCobAsCoqM1xwQpoBC-1">
          <mxGeometry x="-20" y="70" width="66" height="25" as="geometry" />
        </mxCell>
        <mxCell id="k4lCobAsCoqM1xwQpoBC-4" value="stdout" style="rounded=1;whiteSpace=wrap;html=1;sketch=0;points=[[0,0.5,0,0,0],[1,0.5,0,0,0]];fillColor=#1ba1e2;fontColor=#ffffff;strokeColor=#006EAF;arcSize=50;" vertex="1" parent="k4lCobAsCoqM1xwQpoBC-1">
          <mxGeometry x="150" y="70" width="66" height="25" as="geometry" />
        </mxCell>
        <mxCell id="k4lCobAsCoqM1xwQpoBC-3" value="stderr" style="rounded=1;whiteSpace=wrap;html=1;sketch=0;points=[[0,0.5,0,0,0],[1,0.5,0,0,0]];fillColor=#1ba1e2;fontColor=#ffffff;strokeColor=#006EAF;arcSize=50;fontFamily=Helvetica;fontSize=11;" vertex="1" parent="k4lCobAsCoqM1xwQpoBC-1">
          <mxGeometry x="150" y="110" width="66" height="25" as="geometry" />
        </mxCell>
        <mxCell id="k4lCobAsCoqM1xwQpoBC-9" style="edgeStyle=orthogonalEdgeStyle;shape=connector;rounded=1;orthogonalLoop=1;jettySize=auto;html=1;exitX=1;exitY=0.5;exitDx=0;exitDy=0;exitPerimeter=0;labelBackgroundColor=default;strokeColor=default;fontFamily=Helvetica;fontSize=11;fontColor=default;endArrow=classic;" edge="1" parent="1" source="k4lCobAsCoqM1xwQpoBC-5" target="k4lCobAsCoqM1xwQpoBC-2">
          <mxGeometry relative="1" as="geometry" />
        </mxCell>
        <mxCell id="k4lCobAsCoqM1xwQpoBC-5" value="stdin" style="rhombus;whiteSpace=wrap;html=1;rounded=1;fontStyle=1;glass=0;sketch=0;fontSize=12;points=[[0,0.5,0,0,0],[0.5,0,0,0,0],[0.5,1,0,0,0],[1,0.5,0,0,0]];shadow=1;fontFamily=Helvetica;fontColor=default;" vertex="1" parent="1">
          <mxGeometry x="40" y="120" width="80" height="80" as="geometry" />
        </mxCell>
        <mxCell id="k4lCobAsCoqM1xwQpoBC-6" value="stdout" style="rhombus;whiteSpace=wrap;html=1;rounded=1;fillColor=#0050ef;fontColor=#ffffff;strokeColor=#001DBC;fontStyle=1;glass=0;sketch=0;fontSize=12;points=[[0,0.5,0,0,0],[0.5,0,0,0,0],[0.5,1,0,0,0],[1,0.5,0,0,0]];shadow=1;fontFamily=Helvetica;" vertex="1" parent="1">
          <mxGeometry x="580" y="120" width="80" height="80" as="geometry" />
        </mxCell>
        <mxCell id="k4lCobAsCoqM1xwQpoBC-7" value="stderr" style="rhombus;whiteSpace=wrap;html=1;rounded=1;fillColor=#0050ef;fontColor=#ffffff;strokeColor=#001DBC;fontStyle=1;glass=0;sketch=0;fontSize=12;points=[[0,0.5,0,0,0],[0.5,0,0,0,0],[0.5,1,0,0,0],[1,0.5,0,0,0]];shadow=1;fontFamily=Helvetica;" vertex="1" parent="1">
          <mxGeometry x="586" y="250" width="80" height="80" as="geometry" />
        </mxCell>
        <mxCell id="k4lCobAsCoqM1xwQpoBC-10" style="edgeStyle=orthogonalEdgeStyle;shape=connector;rounded=1;orthogonalLoop=1;jettySize=auto;html=1;exitX=1;exitY=0.5;exitDx=0;exitDy=0;exitPerimeter=0;labelBackgroundColor=default;strokeColor=default;fontFamily=Helvetica;fontSize=11;fontColor=default;endArrow=classic;" edge="1" parent="1" source="k4lCobAsCoqM1xwQpoBC-4" target="k4lCobAsCoqM1xwQpoBC-6">
          <mxGeometry relative="1" as="geometry" />
        </mxCell>
        <mxCell id="k4lCobAsCoqM1xwQpoBC-11" style="edgeStyle=orthogonalEdgeStyle;shape=connector;rounded=1;orthogonalLoop=1;jettySize=auto;html=1;exitX=1;exitY=0.5;exitDx=0;exitDy=0;exitPerimeter=0;entryX=0;entryY=0.5;entryDx=0;entryDy=0;entryPerimeter=0;labelBackgroundColor=default;strokeColor=default;fontFamily=Helvetica;fontSize=11;fontColor=default;endArrow=classic;" edge="1" parent="1" source="k4lCobAsCoqM1xwQpoBC-3" target="k4lCobAsCoqM1xwQpoBC-7">
          <mxGeometry relative="1" as="geometry" />
        </mxCell>
      </root>
    </mxGraphModel>
  </diagram>
  <diagram id="oM-gbKDb9bwBw9C7xdYk" name="Pseudo">
    <mxGraphModel dx="998" dy="619" grid="1" gridSize="10" guides="1" tooltips="1" connect="1" arrows="1" fold="1" page="1" pageScale="1" pageWidth="1100" pageHeight="850" math="0" shadow="0">
      <root>
        <mxCell id="0" />
        <mxCell id="1" parent="0" />
        <mxCell id="DdvhVai1q3-OiOgjc_zK-1" value="$ ./fab odinproc.ohm odinproc.fab support.js" style="rounded=1;sketch=0;container=1;recursiveResize=0;verticalAlign=top;arcSize=6;fontStyle=1;autosize=0;points=[];absoluteArcSize=1;shadow=1;strokeColor=#001DBC;fillColor=#0050ef;fontColor=#ffffff;fontFamily=Helvetica;fontSize=11;html=1;whiteSpace=wrap;align=left;spacingLeft=30;" vertex="1" parent="1">
          <mxGeometry x="80" y="400" width="190" height="160" as="geometry">
            <mxRectangle x="-98" y="-1230" width="99" height="26" as="alternateBounds" />
          </mxGeometry>
        </mxCell>
        <mxCell id="DdvhVai1q3-OiOgjc_zK-2" value="stdin" style="rounded=1;whiteSpace=wrap;html=1;sketch=0;points=[[0,0.5,0,0,0],[1,0.5,0,0,0]];arcSize=50;" vertex="1" parent="DdvhVai1q3-OiOgjc_zK-1">
          <mxGeometry x="-20" y="70" width="66" height="25" as="geometry" />
        </mxCell>
        <mxCell id="DdvhVai1q3-OiOgjc_zK-3" value="stdout" style="rounded=1;whiteSpace=wrap;html=1;sketch=0;points=[[0,0.5,0,0,0],[1,0.5,0,0,0]];fillColor=#1ba1e2;fontColor=#ffffff;strokeColor=#006EAF;arcSize=50;" vertex="1" parent="DdvhVai1q3-OiOgjc_zK-1">
          <mxGeometry x="150" y="70" width="66" height="25" as="geometry" />
        </mxCell>
        <mxCell id="DdvhVai1q3-OiOgjc_zK-4" value="stderr" style="rounded=1;whiteSpace=wrap;html=1;sketch=0;points=[[0,0.5,0,0,0],[1,0.5,0,0,0]];fillColor=#1ba1e2;fontColor=#ffffff;strokeColor=#006EAF;arcSize=50;fontFamily=Helvetica;fontSize=11;" vertex="1" parent="DdvhVai1q3-OiOgjc_zK-1">
          <mxGeometry x="150" y="110" width="66" height="25" as="geometry" />
        </mxCell>
        <mxCell id="DdvhVai1q3-OiOgjc_zK-11" style="edgeStyle=orthogonalEdgeStyle;shape=connector;rounded=1;orthogonalLoop=1;jettySize=auto;html=1;exitX=1;exitY=0.5;exitDx=0;exitDy=0;exitPerimeter=0;entryX=0;entryY=0.5;entryDx=0;entryDy=0;entryPerimeter=0;labelBackgroundColor=default;strokeColor=default;fontFamily=Helvetica;fontSize=11;fontColor=default;endArrow=classic;" edge="1" parent="1" source="DdvhVai1q3-OiOgjc_zK-6" target="DdvhVai1q3-OiOgjc_zK-7">
          <mxGeometry relative="1" as="geometry" />
        </mxCell>
        <mxCell id="DdvhVai1q3-OiOgjc_zK-6" value="stdin" style="rhombus;whiteSpace=wrap;html=1;rounded=1;fontStyle=1;glass=0;sketch=0;fontSize=12;points=[[0,0.5,0,0,0],[0.5,0,0,0,0],[0.5,1,0,0,0],[1,0.5,0,0,0]];shadow=1;fontFamily=Helvetica;fontColor=default;" vertex="1" parent="1">
          <mxGeometry x="40" y="120" width="80" height="80" as="geometry" />
        </mxCell>
        <mxCell id="DdvhVai1q3-OiOgjc_zK-7" value="stdout" style="rhombus;whiteSpace=wrap;html=1;rounded=1;fillColor=#0050ef;fontColor=#ffffff;strokeColor=#001DBC;fontStyle=1;glass=0;sketch=0;fontSize=12;points=[[0,0.5,0,0,0],[0.5,0,0,0,0],[0.5,1,0,0,0],[1,0.5,0,0,0]];shadow=1;fontFamily=Helvetica;" vertex="1" parent="1">
          <mxGeometry x="580" y="120" width="80" height="80" as="geometry" />
        </mxCell>
        <mxCell id="DdvhVai1q3-OiOgjc_zK-8" value="stderr" style="rhombus;whiteSpace=wrap;html=1;rounded=1;fillColor=#0050ef;fontColor=#ffffff;strokeColor=#001DBC;fontStyle=1;glass=0;sketch=0;fontSize=12;points=[[0,0.5,0,0,0],[0.5,0,0,0,0],[0.5,1,0,0,0],[1,0.5,0,0,0]];shadow=1;fontFamily=Helvetica;" vertex="1" parent="1">
          <mxGeometry x="586" y="250" width="80" height="80" as="geometry" />
        </mxCell>
        <mxCell id="DdvhVai1q3-OiOgjc_zK-12" value="$ ./fab odinstruct.ohm odinstruct.fab support.js" style="rounded=1;sketch=0;container=1;recursiveResize=0;verticalAlign=top;arcSize=6;fontStyle=1;autosize=0;points=[];absoluteArcSize=1;shadow=1;strokeColor=#001DBC;fillColor=#0050ef;fontColor=#ffffff;fontFamily=Helvetica;fontSize=11;html=1;whiteSpace=wrap;align=left;spacingLeft=30;" vertex="1" parent="1">
          <mxGeometry x="360" y="400" width="190" height="160" as="geometry">
            <mxRectangle x="-98" y="-1230" width="99" height="26" as="alternateBounds" />
          </mxGeometry>
        </mxCell>
        <mxCell id="DdvhVai1q3-OiOgjc_zK-13" value="stdin" style="rounded=1;whiteSpace=wrap;html=1;sketch=0;points=[[0,0.5,0,0,0],[1,0.5,0,0,0]];arcSize=50;" vertex="1" parent="DdvhVai1q3-OiOgjc_zK-12">
          <mxGeometry x="-20" y="70" width="66" height="25" as="geometry" />
        </mxCell>
        <mxCell id="DdvhVai1q3-OiOgjc_zK-14" value="stdout" style="rounded=1;whiteSpace=wrap;html=1;sketch=0;points=[[0,0.5,0,0,0],[1,0.5,0,0,0]];fillColor=#1ba1e2;fontColor=#ffffff;strokeColor=#006EAF;arcSize=50;" vertex="1" parent="DdvhVai1q3-OiOgjc_zK-12">
          <mxGeometry x="150" y="70" width="66" height="25" as="geometry" />
        </mxCell>
        <mxCell id="DdvhVai1q3-OiOgjc_zK-15" value="stderr" style="rounded=1;whiteSpace=wrap;html=1;sketch=0;points=[[0,0.5,0,0,0],[1,0.5,0,0,0]];fillColor=#1ba1e2;fontColor=#ffffff;strokeColor=#006EAF;arcSize=50;fontFamily=Helvetica;fontSize=11;" vertex="1" parent="DdvhVai1q3-OiOgjc_zK-12">
          <mxGeometry x="150" y="110" width="66" height="25" as="geometry" />
        </mxCell>
        <mxCell id="DdvhVai1q3-OiOgjc_zK-16" value="$ ./fab queue.ohm queue.fab support.js" style="rounded=1;sketch=0;container=1;recursiveResize=0;verticalAlign=top;arcSize=6;fontStyle=1;autosize=0;points=[];absoluteArcSize=1;shadow=1;strokeColor=#001DBC;fillColor=#0050ef;fontColor=#ffffff;fontFamily=Helvetica;fontSize=11;html=1;whiteSpace=wrap;align=left;spacingLeft=30;" vertex="1" parent="1">
          <mxGeometry x="680" y="400" width="190" height="160" as="geometry">
            <mxRectangle x="-98" y="-1230" width="99" height="26" as="alternateBounds" />
          </mxGeometry>
        </mxCell>
        <mxCell id="DdvhVai1q3-OiOgjc_zK-17" value="stdin" style="rounded=1;whiteSpace=wrap;html=1;sketch=0;points=[[0,0.5,0,0,0],[1,0.5,0,0,0]];arcSize=50;" vertex="1" parent="DdvhVai1q3-OiOgjc_zK-16">
          <mxGeometry x="-20" y="70" width="66" height="25" as="geometry" />
        </mxCell>
        <mxCell id="DdvhVai1q3-OiOgjc_zK-18" value="stdout" style="rounded=1;whiteSpace=wrap;html=1;sketch=0;points=[[0,0.5,0,0,0],[1,0.5,0,0,0]];fillColor=#1ba1e2;fontColor=#ffffff;strokeColor=#006EAF;arcSize=50;" vertex="1" parent="DdvhVai1q3-OiOgjc_zK-16">
          <mxGeometry x="150" y="70" width="66" height="25" as="geometry" />
        </mxCell>
        <mxCell id="DdvhVai1q3-OiOgjc_zK-19" value="stderr" style="rounded=1;whiteSpace=wrap;html=1;sketch=0;points=[[0,0.5,0,0,0],[1,0.5,0,0,0]];fillColor=#1ba1e2;fontColor=#ffffff;strokeColor=#006EAF;arcSize=50;fontFamily=Helvetica;fontSize=11;" vertex="1" parent="DdvhVai1q3-OiOgjc_zK-16">
          <mxGeometry x="150" y="110" width="66" height="25" as="geometry" />
        </mxCell>
      </root>
    </mxGraphModel>
  </diagram>
</mxfile>
